<svg width="24" height="24" viewBox="0 0 24 24" fill="none" xmlns="http://www.w3.org/2000/svg">
<path d="M13.51 3.13899C12.858 1.95399 11.142 1.95399 10.489 3.13899C9.63029 4.69938 8.92241 6.33814 8.375 8.03299C8.34919 8.0993 8.30377 8.15617 8.24481 8.19601C8.18586 8.23585 8.11616 8.25678 8.045 8.25599C6.57797 8.29412 5.11571 8.43985 3.67 8.69199C2.333 8.92499 1.744 10.529 2.76 11.522C2.888 11.6473 3.01734 11.772 3.148 11.896C4.12681 12.8228 5.16321 13.6869 6.251 14.483C6.30042 14.5158 6.33786 14.5638 6.3577 14.6197C6.37753 14.6756 6.37869 14.7364 6.361 14.793C5.81184 16.4407 5.41943 18.1365 5.189 19.858C4.999 21.282 6.507 22.156 7.684 21.552C9.11288 20.8197 10.4791 19.9712 11.769 19.015C11.8366 18.9672 11.9173 18.9416 12 18.9416C12.0827 18.9416 12.1635 18.9672 12.231 19.015C13.5201 19.9723 14.8864 20.8209 16.316 21.552C17.493 22.156 19.001 21.282 18.811 19.858C18.5809 18.1366 18.1888 16.4407 17.64 14.793C17.6223 14.7364 17.6235 14.6756 17.6433 14.6197C17.6631 14.5638 17.7006 14.5158 17.75 14.483C18.9825 13.5809 20.1488 12.5917 21.24 11.523C22.256 10.529 21.667 8.92499 20.33 8.69199C18.884 8.4398 17.4214 8.29408 15.954 8.25599C15.883 8.25657 15.8135 8.23555 15.7548 8.19572C15.696 8.1559 15.6508 8.09914 15.625 8.03299C15.0793 6.33749 14.3704 4.69857 13.51 3.13899Z" fill="#979797"/>
</svg>
