<?xml version="1.0" encoding="UTF-8" standalone="no"?>
<svg
   width="24"
   height="24"
   viewBox="0 0 24 24"
   fill="none"
   version="1.1"
   id="svg1"
   sodipodi:docname="games.svg"
   inkscape:version="1.3 (0e150ed6c4, 2023-07-21)"
   xmlns:inkscape="http://www.inkscape.org/namespaces/inkscape"
   xmlns:sodipodi="http://sodipodi.sourceforge.net/DTD/sodipodi-0.dtd"
   xmlns="http://www.w3.org/2000/svg"
   xmlns:svg="http://www.w3.org/2000/svg">
  <defs
     id="defs1" />
  <sodipodi:namedview
     id="namedview1"
     pagecolor="#ffffff"
     bordercolor="#666666"
     borderopacity="1.0"
     inkscape:showpageshadow="2"
     inkscape:pageopacity="0.0"
     inkscape:pagecheckerboard="0"
     inkscape:deskcolor="#d1d1d1"
     inkscape:zoom="33.208333"
     inkscape:cx="11.984944"
     inkscape:cy="12"
     inkscape:window-width="1920"
     inkscape:window-height="1017"
     inkscape:window-x="1912"
     inkscape:window-y="-8"
     inkscape:window-maximized="1"
     inkscape:current-layer="svg1" />
  <path
     d="M19.08 6.59999C18.36 5.39999 17.04 4.79999 15.6 4.79999H8.4C6.96 4.79999 5.64 5.39999 4.92 6.59999C2.16 10.8 1.56 17.16 3.48 18.48C5.4 19.8 9.72 14.04 12 14.04C14.28 14.04 18.48 19.8 20.52 18.48C22.44 17.16 21.84 10.8 19.08 6.59999ZM9.6 10.8H8.4V12H7.2V10.8H6V9.59999H7.2V8.39999H8.4V9.59999H9.6V10.8ZM16.08 11.4C16.08 12 15.6 12.48 15 12.48C14.4 12.48 13.92 12 13.92 11.4C13.92 10.8 14.4 10.32 15 10.32C15.6 10.32 16.08 10.8 16.08 11.4ZM18.36 8.99999C18.36 9.59999 17.88 10.08 17.28 10.08C16.68 10.08 16.2 9.59999 16.2 8.99999C16.2 8.39999 16.68 7.91999 17.28 7.91999C17.88 7.91999 18.36 8.39999 18.36 8.99999Z"
     fill="#DC7052"
     id="path1"
     style="fill:#000000;fill-opacity:1" />
</svg>
