<svg width="24" height="24" viewBox="0 0 24 24" fill="none" xmlns="http://www.w3.org/2000/svg">
<path d="M12.854 3.49999C12.7689 3.34824 12.645 3.2219 12.4949 3.13396C12.3448 3.04602 12.174 2.99966 12 2.99966C11.826 2.99966 11.6552 3.04602 11.5051 3.13396C11.355 3.2219 11.231 3.34824 11.146 3.49999C10.946 3.86399 10.7537 4.23266 10.569 4.60599C9.98719 5.78695 9.49253 7.00888 9.08899 8.26199C8.94999 8.69299 8.53799 8.99199 8.06599 9.00499C6.63521 9.04261 5.20908 9.18465 3.79899 9.42999C3.02499 9.56599 2.73399 10.448 3.28399 10.986C3.40933 11.1093 3.53599 11.231 3.66399 11.351C4.62105 12.2548 5.63298 13.0988 6.69399 13.878C7.06099 14.147 7.21199 14.608 7.07199 15.03C6.53868 16.633 6.15701 18.2826 5.93199 19.957C5.83199 20.712 6.63999 21.245 7.34199 20.885C8.73403 20.1712 10.0652 19.3445 11.322 18.413C11.5189 18.2693 11.7563 18.1919 12 18.1919C12.2437 18.1919 12.4811 18.2693 12.678 18.413C13.9346 19.3448 15.2657 20.1716 16.658 20.885C17.359 21.245 18.168 20.712 18.068 19.957C18.0293 19.6737 17.987 19.392 17.941 19.112C17.71 17.7271 17.3713 16.3623 16.928 15.03C16.788 14.608 16.938 14.147 17.306 13.878C18.5097 12.996 19.6493 12.0296 20.716 10.986C21.266 10.448 20.976 9.56599 20.201 9.42999C18.7911 9.18322 17.3649 9.04117 15.934 9.00499C15.7078 9.00139 15.4881 8.92812 15.3051 8.79516C15.122 8.66219 14.9844 8.47602 14.911 8.26199C14.3797 6.61266 13.6908 5.01731 12.854 3.49999Z" stroke="#DC7052" stroke-linecap="round" stroke-linejoin="round"/>
</svg>
